<svg width="256" height="256" viewBox="0 0 256 256" fill="none" xmlns="http://www.w3.org/2000/svg">
<rect width="256" height="256" rx="20" fill="#2C4899"/>
<path d="M97.5971 59.36C96.4571 59.36 95.4771 59.16 94.6571 58.76C93.8371 58.36 93.1571 57.73 92.6171 56.87C92.0971 55.99 91.7071 54.87 91.4471 53.51C91.1871 52.13 91.0571 50.47 91.0571 48.53C91.0571 46.59 91.1871 44.94 91.4471 43.58C91.7071 42.2 92.0971 41.08 92.6171 40.22C93.1571 39.34 93.8371 38.7 94.6571 38.3C95.4771 37.9 96.4571 37.7 97.5971 37.7C98.7371 37.7 99.7171 37.9 100.537 38.3C101.357 38.7 102.027 39.34 102.547 40.22C103.087 41.08 103.487 42.2 103.747 43.58C104.007 44.94 104.137 46.59 104.137 48.53C104.137 50.47 104.007 52.13 103.747 53.51C103.487 54.87 103.087 55.99 102.547 56.87C102.027 57.73 101.357 58.36 100.537 58.76C99.7171 59.16 98.7371 59.36 97.5971 59.36ZM97.5971 57.29C99.0371 57.29 100.067 56.78 100.687 55.76C101.307 54.72 101.617 53.27 101.617 51.41V45.65C101.617 43.79 101.307 42.35 100.687 41.33C100.067 40.29 99.0371 39.77 97.5971 39.77C96.1571 39.77 95.1271 40.29 94.5071 41.33C93.8871 42.35 93.5771 43.79 93.5771 45.65V51.41C93.5771 53.27 93.8871 54.72 94.5071 55.76C95.1271 56.78 96.1571 57.29 97.5971 57.29ZM108.068 59V56.9H113.288V39.83H113.108L108.668 43.94L107.318 42.47L112.058 38.06H115.688V56.9H120.488V59H108.068ZM129.999 59.36C128.859 59.36 127.879 59.16 127.059 58.76C126.239 58.36 125.559 57.73 125.019 56.87C124.499 55.99 124.109 54.87 123.849 53.51C123.589 52.13 123.459 50.47 123.459 48.53C123.459 46.59 123.589 44.94 123.849 43.58C124.109 42.2 124.499 41.08 125.019 40.22C125.559 39.34 126.239 38.7 127.059 38.3C127.879 37.9 128.859 37.7 129.999 37.7C131.139 37.7 132.119 37.9 132.939 38.3C133.759 38.7 134.429 39.34 134.949 40.22C135.489 41.08 135.889 42.2 136.149 43.58C136.409 44.94 136.539 46.59 136.539 48.53C136.539 50.47 136.409 52.13 136.149 53.51C135.889 54.87 135.489 55.99 134.949 56.87C134.429 57.73 133.759 58.36 132.939 58.76C132.119 59.16 131.139 59.36 129.999 59.36ZM129.999 57.29C131.439 57.29 132.469 56.78 133.089 55.76C133.709 54.72 134.019 53.27 134.019 51.41V45.65C134.019 43.79 133.709 42.35 133.089 41.33C132.469 40.29 131.439 39.77 129.999 39.77C128.559 39.77 127.529 40.29 126.909 41.33C126.289 42.35 125.979 43.79 125.979 45.65V51.41C125.979 53.27 126.289 54.72 126.909 55.76C127.529 56.78 128.559 57.29 129.999 57.29ZM146.201 59.36C145.061 59.36 144.081 59.16 143.261 58.76C142.441 58.36 141.761 57.73 141.221 56.87C140.701 55.99 140.311 54.87 140.051 53.51C139.791 52.13 139.661 50.47 139.661 48.53C139.661 46.59 139.791 44.94 140.051 43.58C140.311 42.2 140.701 41.08 141.221 40.22C141.761 39.34 142.441 38.7 143.261 38.3C144.081 37.9 145.061 37.7 146.201 37.7C147.341 37.7 148.321 37.9 149.141 38.3C149.961 38.7 150.631 39.34 151.151 40.22C151.691 41.08 152.091 42.2 152.351 43.58C152.611 44.94 152.741 46.59 152.741 48.53C152.741 50.47 152.611 52.13 152.351 53.51C152.091 54.87 151.691 55.99 151.151 56.87C150.631 57.73 149.961 58.36 149.141 58.76C148.321 59.16 147.341 59.36 146.201 59.36ZM146.201 57.29C147.641 57.29 148.671 56.78 149.291 55.76C149.911 54.72 150.221 53.27 150.221 51.41V45.65C150.221 43.79 149.911 42.35 149.291 41.33C148.671 40.29 147.641 39.77 146.201 39.77C144.761 39.77 143.731 40.29 143.111 41.33C142.491 42.35 142.181 43.79 142.181 45.65V51.41C142.181 53.27 142.491 54.72 143.111 55.76C143.731 56.78 144.761 57.29 146.201 57.29ZM162.402 59.36C161.262 59.36 160.282 59.16 159.462 58.76C158.642 58.36 157.962 57.73 157.422 56.87C156.902 55.99 156.512 54.87 156.252 53.51C155.992 52.13 155.862 50.47 155.862 48.53C155.862 46.59 155.992 44.94 156.252 43.58C156.512 42.2 156.902 41.08 157.422 40.22C157.962 39.34 158.642 38.7 159.462 38.3C160.282 37.9 161.262 37.7 162.402 37.7C163.542 37.7 164.522 37.9 165.342 38.3C166.162 38.7 166.832 39.34 167.352 40.22C167.892 41.08 168.292 42.2 168.552 43.58C168.812 44.94 168.942 46.59 168.942 48.53C168.942 50.47 168.812 52.13 168.552 53.51C168.292 54.87 167.892 55.99 167.352 56.87C166.832 57.73 166.162 58.36 165.342 58.76C164.522 59.16 163.542 59.36 162.402 59.36ZM162.402 57.29C163.842 57.29 164.872 56.78 165.492 55.76C166.112 54.72 166.422 53.27 166.422 51.41V45.65C166.422 43.79 166.112 42.35 165.492 41.33C164.872 40.29 163.842 39.77 162.402 39.77C160.962 39.77 159.932 40.29 159.312 41.33C158.692 42.35 158.382 43.79 158.382 45.65V51.41C158.382 53.27 158.692 54.72 159.312 55.76C159.932 56.78 160.962 57.29 162.402 57.29ZM89.4965 98.36C88.3565 98.36 87.3765 98.16 86.5565 97.76C85.7365 97.36 85.0565 96.73 84.5165 95.87C83.9965 94.99 83.6065 93.87 83.3465 92.51C83.0865 91.13 82.9565 89.47 82.9565 87.53C82.9565 85.59 83.0865 83.94 83.3465 82.58C83.6065 81.2 83.9965 80.08 84.5165 79.22C85.0565 78.34 85.7365 77.7 86.5565 77.3C87.3765 76.9 88.3565 76.7 89.4965 76.7C90.6365 76.7 91.6165 76.9 92.4365 77.3C93.2565 77.7 93.9265 78.34 94.4465 79.22C94.9865 80.08 95.3865 81.2 95.6465 82.58C95.9065 83.94 96.0365 85.59 96.0365 87.53C96.0365 89.47 95.9065 91.13 95.6465 92.51C95.3865 93.87 94.9865 94.99 94.4465 95.87C93.9265 96.73 93.2565 97.36 92.4365 97.76C91.6165 98.16 90.6365 98.36 89.4965 98.36ZM89.4965 96.29C90.9365 96.29 91.9665 95.78 92.5865 94.76C93.2065 93.72 93.5165 92.27 93.5165 90.41V84.65C93.5165 82.79 93.2065 81.35 92.5865 80.33C91.9665 79.29 90.9365 78.77 89.4965 78.77C88.0565 78.77 87.0265 79.29 86.4065 80.33C85.7865 81.35 85.4765 82.79 85.4765 84.65V90.41C85.4765 92.27 85.7865 93.72 86.4065 94.76C87.0265 95.78 88.0565 96.29 89.4965 96.29ZM99.9677 98V95.9H105.188V78.83H105.008L100.568 82.94L99.2177 81.47L103.958 77.06H107.588V95.9H112.388V98H99.9677ZM121.899 98.36C120.759 98.36 119.779 98.16 118.959 97.76C118.139 97.36 117.459 96.73 116.919 95.87C116.399 94.99 116.009 93.87 115.749 92.51C115.489 91.13 115.359 89.47 115.359 87.53C115.359 85.59 115.489 83.94 115.749 82.58C116.009 81.2 116.399 80.08 116.919 79.22C117.459 78.34 118.139 77.7 118.959 77.3C119.779 76.9 120.759 76.7 121.899 76.7C123.039 76.7 124.019 76.9 124.839 77.3C125.659 77.7 126.329 78.34 126.849 79.22C127.389 80.08 127.789 81.2 128.049 82.58C128.309 83.94 128.439 85.59 128.439 87.53C128.439 89.47 128.309 91.13 128.049 92.51C127.789 93.87 127.389 94.99 126.849 95.87C126.329 96.73 125.659 97.36 124.839 97.76C124.019 98.16 123.039 98.36 121.899 98.36ZM121.899 96.29C123.339 96.29 124.369 95.78 124.989 94.76C125.609 93.72 125.919 92.27 125.919 90.41V84.65C125.919 82.79 125.609 81.35 124.989 80.33C124.369 79.29 123.339 78.77 121.899 78.77C120.459 78.77 119.429 79.29 118.809 80.33C118.189 81.35 117.879 82.79 117.879 84.65V90.41C117.879 92.27 118.189 93.72 118.809 94.76C119.429 95.78 120.459 96.29 121.899 96.29ZM138.1 98.36C136.96 98.36 135.98 98.16 135.16 97.76C134.34 97.36 133.66 96.73 133.12 95.87C132.6 94.99 132.21 93.87 131.95 92.51C131.69 91.13 131.56 89.47 131.56 87.53C131.56 85.59 131.69 83.94 131.95 82.58C132.21 81.2 132.6 80.08 133.12 79.22C133.66 78.34 134.34 77.7 135.16 77.3C135.98 76.9 136.96 76.7 138.1 76.7C139.24 76.7 140.22 76.9 141.04 77.3C141.86 77.7 142.53 78.34 143.05 79.22C143.59 80.08 143.99 81.2 144.25 82.58C144.51 83.94 144.64 85.59 144.64 87.53C144.64 89.47 144.51 91.13 144.25 92.51C143.99 93.87 143.59 94.99 143.05 95.87C142.53 96.73 141.86 97.36 141.04 97.76C140.22 98.16 139.24 98.36 138.1 98.36ZM138.1 96.29C139.54 96.29 140.57 95.78 141.19 94.76C141.81 93.72 142.12 92.27 142.12 90.41V84.65C142.12 82.79 141.81 81.35 141.19 80.33C140.57 79.29 139.54 78.77 138.1 78.77C136.66 78.77 135.63 79.29 135.01 80.33C134.39 81.35 134.08 82.79 134.08 84.65V90.41C134.08 92.27 134.39 93.72 135.01 94.76C135.63 95.78 136.66 96.29 138.1 96.29ZM148.571 98V95.9H153.791V78.83H153.611L149.171 82.94L147.821 81.47L152.561 77.06H156.191V95.9H160.991V98H148.571ZM164.772 98V95.9H169.992V78.83H169.812L165.372 82.94L164.022 81.47L168.762 77.06H172.392V95.9H177.192V98H164.772ZM97.5971 176.36C96.4571 176.36 95.4771 176.16 94.6571 175.76C93.8371 175.36 93.1571 174.73 92.6171 173.87C92.0971 172.99 91.7071 171.87 91.4471 170.51C91.1871 169.13 91.0571 167.47 91.0571 165.53C91.0571 163.59 91.1871 161.94 91.4471 160.58C91.7071 159.2 92.0971 158.08 92.6171 157.22C93.1571 156.34 93.8371 155.7 94.6571 155.3C95.4771 154.9 96.4571 154.7 97.5971 154.7C98.7371 154.7 99.7171 154.9 100.537 155.3C101.357 155.7 102.027 156.34 102.547 157.22C103.087 158.08 103.487 159.2 103.747 160.58C104.007 161.94 104.137 163.59 104.137 165.53C104.137 167.47 104.007 169.13 103.747 170.51C103.487 171.87 103.087 172.99 102.547 173.87C102.027 174.73 101.357 175.36 100.537 175.76C99.7171 176.16 98.7371 176.36 97.5971 176.36ZM97.5971 174.29C99.0371 174.29 100.067 173.78 100.687 172.76C101.307 171.72 101.617 170.27 101.617 168.41V162.65C101.617 160.79 101.307 159.35 100.687 158.33C100.067 157.29 99.0371 156.77 97.5971 156.77C96.1571 156.77 95.1271 157.29 94.5071 158.33C93.8871 159.35 93.5771 160.79 93.5771 162.65V168.41C93.5771 170.27 93.8871 171.72 94.5071 172.76C95.1271 173.78 96.1571 174.29 97.5971 174.29ZM108.068 176V173.9H113.288V156.83H113.108L108.668 160.94L107.318 159.47L112.058 155.06H115.688V173.9H120.488V176H108.068ZM129.999 176.36C128.859 176.36 127.879 176.16 127.059 175.76C126.239 175.36 125.559 174.73 125.019 173.87C124.499 172.99 124.109 171.87 123.849 170.51C123.589 169.13 123.459 167.47 123.459 165.53C123.459 163.59 123.589 161.94 123.849 160.58C124.109 159.2 124.499 158.08 125.019 157.22C125.559 156.34 126.239 155.7 127.059 155.3C127.879 154.9 128.859 154.7 129.999 154.7C131.139 154.7 132.119 154.9 132.939 155.3C133.759 155.7 134.429 156.34 134.949 157.22C135.489 158.08 135.889 159.2 136.149 160.58C136.409 161.94 136.539 163.59 136.539 165.53C136.539 167.47 136.409 169.13 136.149 170.51C135.889 171.87 135.489 172.99 134.949 173.87C134.429 174.73 133.759 175.36 132.939 175.76C132.119 176.16 131.139 176.36 129.999 176.36ZM129.999 174.29C131.439 174.29 132.469 173.78 133.089 172.76C133.709 171.72 134.019 170.27 134.019 168.41V162.65C134.019 160.79 133.709 159.35 133.089 158.33C132.469 157.29 131.439 156.77 129.999 156.77C128.559 156.77 127.529 157.29 126.909 158.33C126.289 159.35 125.979 160.79 125.979 162.65V168.41C125.979 170.27 126.289 171.72 126.909 172.76C127.529 173.78 128.559 174.29 129.999 174.29ZM146.201 176.36C145.061 176.36 144.081 176.16 143.261 175.76C142.441 175.36 141.761 174.73 141.221 173.87C140.701 172.99 140.311 171.87 140.051 170.51C139.791 169.13 139.661 167.47 139.661 165.53C139.661 163.59 139.791 161.94 140.051 160.58C140.311 159.2 140.701 158.08 141.221 157.22C141.761 156.34 142.441 155.7 143.261 155.3C144.081 154.9 145.061 154.7 146.201 154.7C147.341 154.7 148.321 154.9 149.141 155.3C149.961 155.7 150.631 156.34 151.151 157.22C151.691 158.08 152.091 159.2 152.351 160.58C152.611 161.94 152.741 163.59 152.741 165.53C152.741 167.47 152.611 169.13 152.351 170.51C152.091 171.87 151.691 172.99 151.151 173.87C150.631 174.73 149.961 175.36 149.141 175.76C148.321 176.16 147.341 176.36 146.201 176.36ZM146.201 174.29C147.641 174.29 148.671 173.78 149.291 172.76C149.911 171.72 150.221 170.27 150.221 168.41V162.65C150.221 160.79 149.911 159.35 149.291 158.33C148.671 157.29 147.641 156.77 146.201 156.77C144.761 156.77 143.731 157.29 143.111 158.33C142.491 159.35 142.181 160.79 142.181 162.65V168.41C142.181 170.27 142.491 171.72 143.111 172.76C143.731 173.78 144.761 174.29 146.201 174.29ZM156.672 176V173.9H161.892V156.83H161.712L157.272 160.94L155.922 159.47L160.662 155.06H164.292V173.9H169.092V176H156.672ZM73.2953 215.36C72.1553 215.36 71.1753 215.16 70.3553 214.76C69.5353 214.36 68.8553 213.73 68.3153 212.87C67.7953 211.99 67.4053 210.87 67.1453 209.51C66.8853 208.13 66.7553 206.47 66.7553 204.53C66.7553 202.59 66.8853 200.94 67.1453 199.58C67.4053 198.2 67.7953 197.08 68.3153 196.22C68.8553 195.34 69.5353 194.7 70.3553 194.3C71.1753 193.9 72.1553 193.7 73.2953 193.7C74.4353 193.7 75.4153 193.9 76.2353 194.3C77.0553 194.7 77.7253 195.34 78.2453 196.22C78.7853 197.08 79.1853 198.2 79.4453 199.58C79.7053 200.94 79.8353 202.59 79.8353 204.53C79.8353 206.47 79.7053 208.13 79.4453 209.51C79.1853 210.87 78.7853 211.99 78.2453 212.87C77.7253 213.73 77.0553 214.36 76.2353 214.76C75.4153 215.16 74.4353 215.36 73.2953 215.36ZM73.2953 213.29C74.7353 213.29 75.7653 212.78 76.3853 211.76C77.0053 210.72 77.3153 209.27 77.3153 207.41V201.65C77.3153 199.79 77.0053 198.35 76.3853 197.33C75.7653 196.29 74.7353 195.77 73.2953 195.77C71.8553 195.77 70.8253 196.29 70.2053 197.33C69.5853 198.35 69.2753 199.79 69.2753 201.65V207.41C69.2753 209.27 69.5853 210.72 70.2053 211.76C70.8253 212.78 71.8553 213.29 73.2953 213.29ZM83.7665 215V212.9H88.9865V195.83H88.8065L84.3665 199.94L83.0165 198.47L87.7565 194.06H91.3865V212.9H96.1865V215H83.7665ZM99.9677 215V212.9H105.188V195.83H105.008L100.568 199.94L99.2177 198.47L103.958 194.06H107.588V212.9H112.388V215H99.9677ZM116.169 215V212.9H121.389V195.83H121.209L116.769 199.94L115.419 198.47L120.159 194.06H123.789V212.9H128.589V215H116.169ZM138.1 215.36C136.96 215.36 135.98 215.16 135.16 214.76C134.34 214.36 133.66 213.73 133.12 212.87C132.6 211.99 132.21 210.87 131.95 209.51C131.69 208.13 131.56 206.47 131.56 204.53C131.56 202.59 131.69 200.94 131.95 199.58C132.21 198.2 132.6 197.08 133.12 196.22C133.66 195.34 134.34 194.7 135.16 194.3C135.98 193.9 136.96 193.7 138.1 193.7C139.24 193.7 140.22 193.9 141.04 194.3C141.86 194.7 142.53 195.34 143.05 196.22C143.59 197.08 143.99 198.2 144.25 199.58C144.51 200.94 144.64 202.59 144.64 204.53C144.64 206.47 144.51 208.13 144.25 209.51C143.99 210.87 143.59 211.99 143.05 212.87C142.53 213.73 141.86 214.36 141.04 214.76C140.22 215.16 139.24 215.36 138.1 215.36ZM138.1 213.29C139.54 213.29 140.57 212.78 141.19 211.76C141.81 210.72 142.12 209.27 142.12 207.41V201.65C142.12 199.79 141.81 198.35 141.19 197.33C140.57 196.29 139.54 195.77 138.1 195.77C136.66 195.77 135.63 196.29 135.01 197.33C134.39 198.35 134.08 199.79 134.08 201.65V207.41C134.08 209.27 134.39 210.72 135.01 211.76C135.63 212.78 136.66 213.29 138.1 213.29ZM148.571 215V212.9H153.791V195.83H153.611L149.171 199.94L147.821 198.47L152.561 194.06H156.191V212.9H160.991V215H148.571ZM170.502 215.36C169.362 215.36 168.382 215.16 167.562 214.76C166.742 214.36 166.062 213.73 165.522 212.87C165.002 211.99 164.612 210.87 164.352 209.51C164.092 208.13 163.962 206.47 163.962 204.53C163.962 202.59 164.092 200.94 164.352 199.58C164.612 198.2 165.002 197.08 165.522 196.22C166.062 195.34 166.742 194.7 167.562 194.3C168.382 193.9 169.362 193.7 170.502 193.7C171.642 193.7 172.622 193.9 173.442 194.3C174.262 194.7 174.932 195.34 175.452 196.22C175.992 197.08 176.392 198.2 176.652 199.58C176.912 200.94 177.042 202.59 177.042 204.53C177.042 206.47 176.912 208.13 176.652 209.51C176.392 210.87 175.992 211.99 175.452 212.87C174.932 213.73 174.262 214.36 173.442 214.76C172.622 215.16 171.642 215.36 170.502 215.36ZM170.502 213.29C171.942 213.29 172.972 212.78 173.592 211.76C174.212 210.72 174.522 209.27 174.522 207.41V201.65C174.522 199.79 174.212 198.35 173.592 197.33C172.972 196.29 171.942 195.77 170.502 195.77C169.062 195.77 168.032 196.29 167.412 197.33C166.792 198.35 166.482 199.79 166.482 201.65V207.41C166.482 209.27 166.792 210.72 167.412 211.76C168.032 212.78 169.062 213.29 170.502 213.29ZM186.704 215.36C185.564 215.36 184.584 215.16 183.764 214.76C182.944 214.36 182.264 213.73 181.724 212.87C181.204 211.99 180.814 210.87 180.554 209.51C180.294 208.13 180.164 206.47 180.164 204.53C180.164 202.59 180.294 200.94 180.554 199.58C180.814 198.2 181.204 197.08 181.724 196.22C182.264 195.34 182.944 194.7 183.764 194.3C184.584 193.9 185.564 193.7 186.704 193.7C187.844 193.7 188.824 193.9 189.644 194.3C190.464 194.7 191.134 195.34 191.654 196.22C192.194 197.08 192.594 198.2 192.854 199.58C193.114 200.94 193.244 202.59 193.244 204.53C193.244 206.47 193.114 208.13 192.854 209.51C192.594 210.87 192.194 211.99 191.654 212.87C191.134 213.73 190.464 214.36 189.644 214.76C188.824 215.16 187.844 215.36 186.704 215.36ZM186.704 213.29C188.144 213.29 189.174 212.78 189.794 211.76C190.414 210.72 190.724 209.27 190.724 207.41V201.65C190.724 199.79 190.414 198.35 189.794 197.33C189.174 196.29 188.144 195.77 186.704 195.77C185.264 195.77 184.234 196.29 183.614 197.33C182.994 198.35 182.684 199.79 182.684 201.65V207.41C182.684 209.27 182.994 210.72 183.614 211.76C184.234 212.78 185.264 213.29 186.704 213.29Z" fill="#C8C8C8"/>
<path d="M95.5971 59.36C94.4571 59.36 93.4771 59.16 92.6571 58.76C91.8371 58.36 91.1571 57.73 90.6171 56.87C90.0971 55.99 89.7071 54.87 89.4471 53.51C89.1871 52.13 89.0571 50.47 89.0571 48.53C89.0571 46.59 89.1871 44.94 89.4471 43.58C89.7071 42.2 90.0971 41.08 90.6171 40.22C91.1571 39.34 91.8371 38.7 92.6571 38.3C93.4771 37.9 94.4571 37.7 95.5971 37.7C96.7371 37.7 97.7171 37.9 98.5371 38.3C99.3571 38.7 100.027 39.34 100.547 40.22C101.087 41.08 101.487 42.2 101.747 43.58C102.007 44.94 102.137 46.59 102.137 48.53C102.137 50.47 102.007 52.13 101.747 53.51C101.487 54.87 101.087 55.99 100.547 56.87C100.027 57.73 99.3571 58.36 98.5371 58.76C97.7171 59.16 96.7371 59.36 95.5971 59.36ZM95.5971 57.29C97.0371 57.29 98.0671 56.78 98.6871 55.76C99.3071 54.72 99.6171 53.27 99.6171 51.41V45.65C99.6171 43.79 99.3071 42.35 98.6871 41.33C98.0671 40.29 97.0371 39.77 95.5971 39.77C94.1571 39.77 93.1271 40.29 92.5071 41.33C91.8871 42.35 91.5771 43.79 91.5771 45.65V51.41C91.5771 53.27 91.8871 54.72 92.5071 55.76C93.1271 56.78 94.1571 57.29 95.5971 57.29ZM106.068 59V56.9H111.288V39.83H111.108L106.668 43.94L105.318 42.47L110.058 38.06H113.688V56.9H118.488V59H106.068ZM127.999 59.36C126.859 59.36 125.879 59.16 125.059 58.76C124.239 58.36 123.559 57.73 123.019 56.87C122.499 55.99 122.109 54.87 121.849 53.51C121.589 52.13 121.459 50.47 121.459 48.53C121.459 46.59 121.589 44.94 121.849 43.58C122.109 42.2 122.499 41.08 123.019 40.22C123.559 39.34 124.239 38.7 125.059 38.3C125.879 37.9 126.859 37.7 127.999 37.7C129.139 37.7 130.119 37.9 130.939 38.3C131.759 38.7 132.429 39.34 132.949 40.22C133.489 41.08 133.889 42.2 134.149 43.58C134.409 44.94 134.539 46.59 134.539 48.53C134.539 50.47 134.409 52.13 134.149 53.51C133.889 54.87 133.489 55.99 132.949 56.87C132.429 57.73 131.759 58.36 130.939 58.76C130.119 59.16 129.139 59.36 127.999 59.36ZM127.999 57.29C129.439 57.29 130.469 56.78 131.089 55.76C131.709 54.72 132.019 53.27 132.019 51.41V45.65C132.019 43.79 131.709 42.35 131.089 41.33C130.469 40.29 129.439 39.77 127.999 39.77C126.559 39.77 125.529 40.29 124.909 41.33C124.289 42.35 123.979 43.79 123.979 45.65V51.41C123.979 53.27 124.289 54.72 124.909 55.76C125.529 56.78 126.559 57.29 127.999 57.29ZM144.201 59.36C143.061 59.36 142.081 59.16 141.261 58.76C140.441 58.36 139.761 57.73 139.221 56.87C138.701 55.99 138.311 54.87 138.051 53.51C137.791 52.13 137.661 50.47 137.661 48.53C137.661 46.59 137.791 44.94 138.051 43.58C138.311 42.2 138.701 41.08 139.221 40.22C139.761 39.34 140.441 38.7 141.261 38.3C142.081 37.9 143.061 37.7 144.201 37.7C145.341 37.7 146.321 37.9 147.141 38.3C147.961 38.7 148.631 39.34 149.151 40.22C149.691 41.08 150.091 42.2 150.351 43.58C150.611 44.94 150.741 46.59 150.741 48.53C150.741 50.47 150.611 52.13 150.351 53.51C150.091 54.87 149.691 55.99 149.151 56.87C148.631 57.73 147.961 58.36 147.141 58.76C146.321 59.16 145.341 59.36 144.201 59.36ZM144.201 57.29C145.641 57.29 146.671 56.78 147.291 55.76C147.911 54.72 148.221 53.27 148.221 51.41V45.65C148.221 43.79 147.911 42.35 147.291 41.33C146.671 40.29 145.641 39.77 144.201 39.77C142.761 39.77 141.731 40.29 141.111 41.33C140.491 42.35 140.181 43.79 140.181 45.65V51.41C140.181 53.27 140.491 54.72 141.111 55.76C141.731 56.78 142.761 57.29 144.201 57.29ZM160.402 59.36C159.262 59.36 158.282 59.16 157.462 58.76C156.642 58.36 155.962 57.73 155.422 56.87C154.902 55.99 154.512 54.87 154.252 53.51C153.992 52.13 153.862 50.47 153.862 48.53C153.862 46.59 153.992 44.94 154.252 43.58C154.512 42.2 154.902 41.08 155.422 40.22C155.962 39.34 156.642 38.7 157.462 38.3C158.282 37.9 159.262 37.7 160.402 37.7C161.542 37.7 162.522 37.9 163.342 38.3C164.162 38.7 164.832 39.34 165.352 40.22C165.892 41.08 166.292 42.2 166.552 43.58C166.812 44.94 166.942 46.59 166.942 48.53C166.942 50.47 166.812 52.13 166.552 53.51C166.292 54.87 165.892 55.99 165.352 56.87C164.832 57.73 164.162 58.36 163.342 58.76C162.522 59.16 161.542 59.36 160.402 59.36ZM160.402 57.29C161.842 57.29 162.872 56.78 163.492 55.76C164.112 54.72 164.422 53.27 164.422 51.41V45.65C164.422 43.79 164.112 42.35 163.492 41.33C162.872 40.29 161.842 39.77 160.402 39.77C158.962 39.77 157.932 40.29 157.312 41.33C156.692 42.35 156.382 43.79 156.382 45.65V51.41C156.382 53.27 156.692 54.72 157.312 55.76C157.932 56.78 158.962 57.29 160.402 57.29ZM87.4965 98.36C86.3565 98.36 85.3765 98.16 84.5565 97.76C83.7365 97.36 83.0565 96.73 82.5165 95.87C81.9965 94.99 81.6065 93.87 81.3465 92.51C81.0865 91.13 80.9565 89.47 80.9565 87.53C80.9565 85.59 81.0865 83.94 81.3465 82.58C81.6065 81.2 81.9965 80.08 82.5165 79.22C83.0565 78.34 83.7365 77.7 84.5565 77.3C85.3765 76.9 86.3565 76.7 87.4965 76.7C88.6365 76.7 89.6165 76.9 90.4365 77.3C91.2565 77.7 91.9265 78.34 92.4465 79.22C92.9865 80.08 93.3865 81.2 93.6465 82.58C93.9065 83.94 94.0365 85.59 94.0365 87.53C94.0365 89.47 93.9065 91.13 93.6465 92.51C93.3865 93.87 92.9865 94.99 92.4465 95.87C91.9265 96.73 91.2565 97.36 90.4365 97.76C89.6165 98.16 88.6365 98.36 87.4965 98.36ZM87.4965 96.29C88.9365 96.29 89.9665 95.78 90.5865 94.76C91.2065 93.72 91.5165 92.27 91.5165 90.41V84.65C91.5165 82.79 91.2065 81.35 90.5865 80.33C89.9665 79.29 88.9365 78.77 87.4965 78.77C86.0565 78.77 85.0265 79.29 84.4065 80.33C83.7865 81.35 83.4765 82.79 83.4765 84.65V90.41C83.4765 92.27 83.7865 93.72 84.4065 94.76C85.0265 95.78 86.0565 96.29 87.4965 96.29ZM97.9677 98V95.9H103.188V78.83H103.008L98.5677 82.94L97.2177 81.47L101.958 77.06H105.588V95.9H110.388V98H97.9677ZM119.899 98.36C118.759 98.36 117.779 98.16 116.959 97.76C116.139 97.36 115.459 96.73 114.919 95.87C114.399 94.99 114.009 93.87 113.749 92.51C113.489 91.13 113.359 89.47 113.359 87.53C113.359 85.59 113.489 83.94 113.749 82.58C114.009 81.2 114.399 80.08 114.919 79.22C115.459 78.34 116.139 77.7 116.959 77.3C117.779 76.9 118.759 76.7 119.899 76.7C121.039 76.7 122.019 76.9 122.839 77.3C123.659 77.7 124.329 78.34 124.849 79.22C125.389 80.08 125.789 81.2 126.049 82.58C126.309 83.94 126.439 85.59 126.439 87.53C126.439 89.47 126.309 91.13 126.049 92.51C125.789 93.87 125.389 94.99 124.849 95.87C124.329 96.73 123.659 97.36 122.839 97.76C122.019 98.16 121.039 98.36 119.899 98.36ZM119.899 96.29C121.339 96.29 122.369 95.78 122.989 94.76C123.609 93.72 123.919 92.27 123.919 90.41V84.65C123.919 82.79 123.609 81.35 122.989 80.33C122.369 79.29 121.339 78.77 119.899 78.77C118.459 78.77 117.429 79.29 116.809 80.33C116.189 81.35 115.879 82.79 115.879 84.65V90.41C115.879 92.27 116.189 93.72 116.809 94.76C117.429 95.78 118.459 96.29 119.899 96.29ZM136.1 98.36C134.96 98.36 133.98 98.16 133.16 97.76C132.34 97.36 131.66 96.73 131.12 95.87C130.6 94.99 130.21 93.87 129.95 92.51C129.69 91.13 129.56 89.47 129.56 87.53C129.56 85.59 129.69 83.94 129.95 82.58C130.21 81.2 130.6 80.08 131.12 79.22C131.66 78.34 132.34 77.7 133.16 77.3C133.98 76.9 134.96 76.7 136.1 76.7C137.24 76.7 138.22 76.9 139.04 77.3C139.86 77.7 140.53 78.34 141.05 79.22C141.59 80.08 141.99 81.2 142.25 82.58C142.51 83.94 142.64 85.59 142.64 87.53C142.64 89.47 142.51 91.13 142.25 92.51C141.99 93.87 141.59 94.99 141.05 95.87C140.53 96.73 139.86 97.36 139.04 97.76C138.22 98.16 137.24 98.36 136.1 98.36ZM136.1 96.29C137.54 96.29 138.57 95.78 139.19 94.76C139.81 93.72 140.12 92.27 140.12 90.41V84.65C140.12 82.79 139.81 81.35 139.19 80.33C138.57 79.29 137.54 78.77 136.1 78.77C134.66 78.77 133.63 79.29 133.01 80.33C132.39 81.35 132.08 82.79 132.08 84.65V90.41C132.08 92.27 132.39 93.72 133.01 94.76C133.63 95.78 134.66 96.29 136.1 96.29ZM146.571 98V95.9H151.791V78.83H151.611L147.171 82.94L145.821 81.47L150.561 77.06H154.191V95.9H158.991V98H146.571ZM162.772 98V95.9H167.992V78.83H167.812L163.372 82.94L162.022 81.47L166.762 77.06H170.392V95.9H175.192V98H162.772ZM95.5971 176.36C94.4571 176.36 93.4771 176.16 92.6571 175.76C91.8371 175.36 91.1571 174.73 90.6171 173.87C90.0971 172.99 89.7071 171.87 89.4471 170.51C89.1871 169.13 89.0571 167.47 89.0571 165.53C89.0571 163.59 89.1871 161.94 89.4471 160.58C89.7071 159.2 90.0971 158.08 90.6171 157.22C91.1571 156.34 91.8371 155.7 92.6571 155.3C93.4771 154.9 94.4571 154.7 95.5971 154.7C96.7371 154.7 97.7171 154.9 98.5371 155.3C99.3571 155.7 100.027 156.34 100.547 157.22C101.087 158.08 101.487 159.2 101.747 160.58C102.007 161.94 102.137 163.59 102.137 165.53C102.137 167.47 102.007 169.13 101.747 170.51C101.487 171.87 101.087 172.99 100.547 173.87C100.027 174.73 99.3571 175.36 98.5371 175.76C97.7171 176.16 96.7371 176.36 95.5971 176.36ZM95.5971 174.29C97.0371 174.29 98.0671 173.78 98.6871 172.76C99.3071 171.72 99.6171 170.27 99.6171 168.41V162.65C99.6171 160.79 99.3071 159.35 98.6871 158.33C98.0671 157.29 97.0371 156.77 95.5971 156.77C94.1571 156.77 93.1271 157.29 92.5071 158.33C91.8871 159.35 91.5771 160.79 91.5771 162.65V168.41C91.5771 170.27 91.8871 171.72 92.5071 172.76C93.1271 173.78 94.1571 174.29 95.5971 174.29ZM106.068 176V173.9H111.288V156.83H111.108L106.668 160.94L105.318 159.47L110.058 155.06H113.688V173.9H118.488V176H106.068ZM127.999 176.36C126.859 176.36 125.879 176.16 125.059 175.76C124.239 175.36 123.559 174.73 123.019 173.87C122.499 172.99 122.109 171.87 121.849 170.51C121.589 169.13 121.459 167.47 121.459 165.53C121.459 163.59 121.589 161.94 121.849 160.58C122.109 159.2 122.499 158.08 123.019 157.22C123.559 156.34 124.239 155.7 125.059 155.3C125.879 154.9 126.859 154.7 127.999 154.7C129.139 154.7 130.119 154.9 130.939 155.3C131.759 155.7 132.429 156.34 132.949 157.22C133.489 158.08 133.889 159.2 134.149 160.58C134.409 161.94 134.539 163.59 134.539 165.53C134.539 167.47 134.409 169.13 134.149 170.51C133.889 171.87 133.489 172.99 132.949 173.87C132.429 174.73 131.759 175.36 130.939 175.76C130.119 176.16 129.139 176.36 127.999 176.36ZM127.999 174.29C129.439 174.29 130.469 173.78 131.089 172.76C131.709 171.72 132.019 170.27 132.019 168.41V162.65C132.019 160.79 131.709 159.35 131.089 158.33C130.469 157.29 129.439 156.77 127.999 156.77C126.559 156.77 125.529 157.29 124.909 158.33C124.289 159.35 123.979 160.79 123.979 162.65V168.41C123.979 170.27 124.289 171.72 124.909 172.76C125.529 173.78 126.559 174.29 127.999 174.29ZM144.201 176.36C143.061 176.36 142.081 176.16 141.261 175.76C140.441 175.36 139.761 174.73 139.221 173.87C138.701 172.99 138.311 171.87 138.051 170.51C137.791 169.13 137.661 167.47 137.661 165.53C137.661 163.59 137.791 161.94 138.051 160.58C138.311 159.2 138.701 158.08 139.221 157.22C139.761 156.34 140.441 155.7 141.261 155.3C142.081 154.9 143.061 154.7 144.201 154.7C145.341 154.7 146.321 154.9 147.141 155.3C147.961 155.7 148.631 156.34 149.151 157.22C149.691 158.08 150.091 159.2 150.351 160.58C150.611 161.94 150.741 163.59 150.741 165.53C150.741 167.47 150.611 169.13 150.351 170.51C150.091 171.87 149.691 172.99 149.151 173.87C148.631 174.73 147.961 175.36 147.141 175.76C146.321 176.16 145.341 176.36 144.201 176.36ZM144.201 174.29C145.641 174.29 146.671 173.78 147.291 172.76C147.911 171.72 148.221 170.27 148.221 168.41V162.65C148.221 160.79 147.911 159.35 147.291 158.33C146.671 157.29 145.641 156.77 144.201 156.77C142.761 156.77 141.731 157.29 141.111 158.33C140.491 159.35 140.181 160.79 140.181 162.65V168.41C140.181 170.27 140.491 171.72 141.111 172.76C141.731 173.78 142.761 174.29 144.201 174.29ZM154.672 176V173.9H159.892V156.83H159.712L155.272 160.94L153.922 159.47L158.662 155.06H162.292V173.9H167.092V176H154.672ZM71.2953 215.36C70.1553 215.36 69.1753 215.16 68.3553 214.76C67.5353 214.36 66.8553 213.73 66.3153 212.87C65.7953 211.99 65.4053 210.87 65.1453 209.51C64.8853 208.13 64.7553 206.47 64.7553 204.53C64.7553 202.59 64.8853 200.94 65.1453 199.58C65.4053 198.2 65.7953 197.08 66.3153 196.22C66.8553 195.34 67.5353 194.7 68.3553 194.3C69.1753 193.9 70.1553 193.7 71.2953 193.7C72.4353 193.7 73.4153 193.9 74.2353 194.3C75.0553 194.7 75.7253 195.34 76.2453 196.22C76.7853 197.08 77.1853 198.2 77.4453 199.58C77.7053 200.94 77.8353 202.59 77.8353 204.53C77.8353 206.47 77.7053 208.13 77.4453 209.51C77.1853 210.87 76.7853 211.99 76.2453 212.87C75.7253 213.73 75.0553 214.36 74.2353 214.76C73.4153 215.16 72.4353 215.36 71.2953 215.36ZM71.2953 213.29C72.7353 213.29 73.7653 212.78 74.3853 211.76C75.0053 210.72 75.3153 209.27 75.3153 207.41V201.65C75.3153 199.79 75.0053 198.35 74.3853 197.33C73.7653 196.29 72.7353 195.77 71.2953 195.77C69.8553 195.77 68.8253 196.29 68.2053 197.33C67.5853 198.35 67.2753 199.79 67.2753 201.65V207.41C67.2753 209.27 67.5853 210.72 68.2053 211.76C68.8253 212.78 69.8553 213.29 71.2953 213.29ZM81.7665 215V212.9H86.9865V195.83H86.8065L82.3665 199.94L81.0165 198.47L85.7565 194.06H89.3865V212.9H94.1865V215H81.7665ZM97.9677 215V212.9H103.188V195.83H103.008L98.5677 199.94L97.2177 198.47L101.958 194.06H105.588V212.9H110.388V215H97.9677ZM114.169 215V212.9H119.389V195.83H119.209L114.769 199.94L113.419 198.47L118.159 194.06H121.789V212.9H126.589V215H114.169ZM136.1 215.36C134.96 215.36 133.98 215.16 133.16 214.76C132.34 214.36 131.66 213.73 131.12 212.87C130.6 211.99 130.21 210.87 129.95 209.51C129.69 208.13 129.56 206.47 129.56 204.53C129.56 202.59 129.69 200.94 129.95 199.58C130.21 198.2 130.6 197.08 131.12 196.22C131.66 195.34 132.34 194.7 133.16 194.3C133.98 193.9 134.96 193.7 136.1 193.7C137.24 193.7 138.22 193.9 139.04 194.3C139.86 194.7 140.53 195.34 141.05 196.22C141.59 197.08 141.99 198.2 142.25 199.58C142.51 200.94 142.64 202.59 142.64 204.53C142.64 206.47 142.51 208.13 142.25 209.51C141.99 210.87 141.59 211.99 141.05 212.87C140.53 213.73 139.86 214.36 139.04 214.76C138.22 215.16 137.24 215.36 136.1 215.36ZM136.1 213.29C137.54 213.29 138.57 212.78 139.19 211.76C139.81 210.72 140.12 209.27 140.12 207.41V201.65C140.12 199.79 139.81 198.35 139.19 197.33C138.57 196.29 137.54 195.77 136.1 195.77C134.66 195.77 133.63 196.29 133.01 197.33C132.39 198.35 132.08 199.79 132.08 201.65V207.41C132.08 209.27 132.39 210.72 133.01 211.76C133.63 212.78 134.66 213.29 136.1 213.29ZM146.571 215V212.9H151.791V195.83H151.611L147.171 199.94L145.821 198.47L150.561 194.06H154.191V212.9H158.991V215H146.571ZM168.502 215.36C167.362 215.36 166.382 215.16 165.562 214.76C164.742 214.36 164.062 213.73 163.522 212.87C163.002 211.99 162.612 210.87 162.352 209.51C162.092 208.13 161.962 206.47 161.962 204.53C161.962 202.59 162.092 200.94 162.352 199.58C162.612 198.2 163.002 197.08 163.522 196.22C164.062 195.34 164.742 194.7 165.562 194.3C166.382 193.9 167.362 193.7 168.502 193.7C169.642 193.7 170.622 193.9 171.442 194.3C172.262 194.7 172.932 195.34 173.452 196.22C173.992 197.08 174.392 198.2 174.652 199.58C174.912 200.94 175.042 202.59 175.042 204.53C175.042 206.47 174.912 208.13 174.652 209.51C174.392 210.87 173.992 211.99 173.452 212.87C172.932 213.73 172.262 214.36 171.442 214.76C170.622 215.16 169.642 215.36 168.502 215.36ZM168.502 213.29C169.942 213.29 170.972 212.78 171.592 211.76C172.212 210.72 172.522 209.27 172.522 207.41V201.65C172.522 199.79 172.212 198.35 171.592 197.33C170.972 196.29 169.942 195.77 168.502 195.77C167.062 195.77 166.032 196.29 165.412 197.33C164.792 198.35 164.482 199.79 164.482 201.65V207.41C164.482 209.27 164.792 210.72 165.412 211.76C166.032 212.78 167.062 213.29 168.502 213.29ZM184.704 215.36C183.564 215.36 182.584 215.16 181.764 214.76C180.944 214.36 180.264 213.73 179.724 212.87C179.204 211.99 178.814 210.87 178.554 209.51C178.294 208.13 178.164 206.47 178.164 204.53C178.164 202.59 178.294 200.94 178.554 199.58C178.814 198.2 179.204 197.08 179.724 196.22C180.264 195.34 180.944 194.7 181.764 194.3C182.584 193.9 183.564 193.7 184.704 193.7C185.844 193.7 186.824 193.9 187.644 194.3C188.464 194.7 189.134 195.34 189.654 196.22C190.194 197.08 190.594 198.2 190.854 199.58C191.114 200.94 191.244 202.59 191.244 204.53C191.244 206.47 191.114 208.13 190.854 209.51C190.594 210.87 190.194 211.99 189.654 212.87C189.134 213.73 188.464 214.36 187.644 214.76C186.824 215.16 185.844 215.36 184.704 215.36ZM184.704 213.29C186.144 213.29 187.174 212.78 187.794 211.76C188.414 210.72 188.724 209.27 188.724 207.41V201.65C188.724 199.79 188.414 198.35 187.794 197.33C187.174 196.29 186.144 195.77 184.704 195.77C183.264 195.77 182.234 196.29 181.614 197.33C180.994 198.35 180.684 199.79 180.684 201.65V207.41C180.684 209.27 180.994 210.72 181.614 211.76C182.234 212.78 183.264 213.29 184.704 213.29Z" fill="white"/>
<path d="M93 217.5H183V183.75C183 171.375 178.594 160.781 169.781 151.969C160.969 143.156 150.375 138.75 138 138.75C125.625 138.75 115.031 143.156 106.219 151.969C97.4062 160.781 93 171.375 93 183.75V217.5ZM169.781 103.031C178.594 94.2188 183 83.625 183 71.25V37.5H93V71.25C93 83.625 97.4062 94.2188 106.219 103.031C115.031 111.844 125.625 116.25 138 116.25C150.375 116.25 160.969 111.844 169.781 103.031ZM48 240V217.5H70.5V183.75C70.5 172.312 73.1719 161.578 78.5156 151.547C83.8594 141.516 91.3125 133.5 100.875 127.5C91.3125 121.5 83.8594 113.484 78.5156 103.453C73.1719 93.4219 70.5 82.6875 70.5 71.25V37.5H48V15H228V37.5H205.5V71.25C205.5 82.6875 202.828 93.4219 197.484 103.453C192.141 113.484 184.688 121.5 175.125 127.5C184.688 133.5 192.141 141.516 197.484 151.547C202.828 161.578 205.5 172.312 205.5 183.75V217.5H228V240H48Z" fill="#C8C8C8"/>
<path d="M83 217.5H173V183.75C173 171.375 168.594 160.781 159.781 151.969C150.969 143.156 140.375 138.75 128 138.75C115.625 138.75 105.031 143.156 96.2188 151.969C87.4062 160.781 83 171.375 83 183.75V217.5ZM159.781 103.031C168.594 94.2188 173 83.625 173 71.25V37.5H83V71.25C83 83.625 87.4062 94.2188 96.2188 103.031C105.031 111.844 115.625 116.25 128 116.25C140.375 116.25 150.969 111.844 159.781 103.031ZM38 240V217.5H60.5V183.75C60.5 172.312 63.1719 161.578 68.5156 151.547C73.8594 141.516 81.3125 133.5 90.875 127.5C81.3125 121.5 73.8594 113.484 68.5156 103.453C63.1719 93.4219 60.5 82.6875 60.5 71.25V37.5H38V15H218V37.5H195.5V71.25C195.5 82.6875 192.828 93.4219 187.484 103.453C182.141 113.484 174.688 121.5 165.125 127.5C174.688 133.5 182.141 141.516 187.484 151.547C192.828 161.578 195.5 172.312 195.5 183.75V217.5H218V240H38Z" fill="white"/>
</svg>
